<svg width="32" height="32" viewBox="0 0 32 32" fill="none" xmlns="http://www.w3.org/2000/svg">
<path d="M25.5522 12.1923C25.1023 12.1923 24.7362 11.8263 24.7362 11.3763C24.7362 10.9264 25.1023 10.5604 25.5522 10.5604C26.9019 10.5604 28 9.4623 28 8.11258C28 6.46291 26.6579 5.12083 25.0082 5.12083C23.6585 5.12083 22.5604 6.21893 22.5604 7.56865C22.5604 8.01855 22.1944 8.3846 21.7445 8.3846C21.2946 8.3846 20.9285 8.01855 20.9285 7.56865C20.9285 5.61907 19.3424 4.03296 17.3928 4.03296C15.4433 4.03296 13.8572 5.61907 13.8572 7.56865C13.8572 8.26933 14.0629 8.92249 14.4159 9.47248H14.4011H6.41421C5.52331 9.47248 5.07714 10.5496 5.70711 11.1796L11.6154 17.0878H9.77748C7.228 17.0878 5.15387 19.162 5.15387 21.7114C5.15387 24.2609 7.22805 26.3351 9.77748 26.3351C11.4217 26.3351 12.8672 25.4716 13.6871 24.1751C14.9409 26.4342 17.3509 27.9669 20.1126 27.9669H23.1923C23.7446 27.9669 24.1923 27.5192 24.1923 26.9669V18.492C24.5257 18.6381 24.8935 18.7198 25.2802 18.7198C26.2485 18.7198 26.9999 18.2938 27.4533 17.488C27.8263 16.8248 28 15.9199 28 14.6401C28 13.2904 26.9019 12.1923 25.5522 12.1923ZM12.7693 21.7115C12.7693 23.3612 11.4272 24.7033 9.77753 24.7033C8.12786 24.7033 6.78578 23.3612 6.78578 21.7115C6.78578 20.0619 8.12786 18.7198 9.77753 18.7198H12.7693V21.7115ZM12.7693 15.934L7.93966 11.1044H12.7693V15.934ZM22.5604 26.3351H20.1126C16.9632 26.3351 14.4011 23.773 14.4011 20.6236V11.1044H17.3928C20.2422 11.1044 22.5604 13.4226 22.5604 16.272V26.3351ZM25.2802 17.0879C24.6804 17.0879 24.1923 16.5999 24.1923 16H24.1863C24.043 12.3764 21.0509 9.47257 17.3928 9.47257C16.3431 9.47257 15.489 8.61851 15.489 7.56874C15.489 6.51897 16.3431 5.66491 17.3928 5.66491C18.4426 5.66491 19.2967 6.51897 19.2967 7.56874C19.2967 8.91846 20.3948 10.0166 21.7445 10.0166C23.0942 10.0166 24.1923 8.91846 24.1923 7.56874C24.1923 7.11883 24.5583 6.75279 25.0082 6.75279C25.7581 6.75279 26.3681 7.36282 26.3681 8.11268C26.3681 8.56258 26.0021 8.92863 25.5522 8.92863C24.2025 8.92863 23.1044 10.0267 23.1044 11.3764C23.1044 12.7262 24.2025 13.8243 25.5522 13.8243C26.0021 13.8243 26.3681 14.1903 26.3681 14.6402C26.3681 17.0879 25.6605 17.0879 25.2802 17.0879Z" fill="white"/>
<path d="M18 14H18.1" stroke="white" stroke-width="1.8" stroke-linecap="round" stroke-linejoin="round"/>
</svg>
