<svg width="32" height="32" viewBox="0 0 32 32" fill="none" xmlns="http://www.w3.org/2000/svg">
<path d="M23.2231 19.2215C24.6412 16.5757 25.0312 13.4991 24.3181 10.5833H24.6831C26.7514 10.5833 28.333 9.00161 28.333 6.9333V4.5H24.6831C23.1014 4.5 21.7631 5.47332 21.2764 6.81164C19.6749 6.07044 17.9313 5.68653 16.1665 5.68653C14.4018 5.68653 12.6581 6.07044 11.0566 6.81164C10.5699 5.47332 9.2316 4.5 7.64995 4.5H4V6.9333C4 9.00161 5.58165 10.5833 7.64995 10.5833H8.01495C7.30179 13.4991 7.69178 16.5757 9.10993 19.2215" stroke="white" stroke-width="1.82498" stroke-linecap="round" stroke-linejoin="round"/>
<path d="M12.5161 12.4082V12.5082" stroke="white" stroke-width="1.82498" stroke-linecap="round" stroke-linejoin="round"/>
<path d="M19.8159 12.4082V12.5082" stroke="white" stroke-width="1.82498" stroke-linecap="round" stroke-linejoin="round"/>
<path d="M19.8167 27.6163C20.635 27.6244 21.4422 27.426 22.1635 27.0394C22.8848 26.6529 23.497 26.0907 23.9435 25.4048C24.3899 24.719 24.6562 23.9316 24.7177 23.1155C24.7792 22.2995 24.6339 21.4811 24.2952 20.7361C23.9566 19.9911 23.4355 19.3435 22.7803 18.8532C22.125 18.363 21.3567 18.0459 20.5464 17.9313C19.7361 17.8167 18.91 17.9082 18.1445 18.1975C17.3789 18.4868 16.6987 18.9645 16.1667 19.5864C15.6348 18.9645 14.9546 18.4868 14.189 18.1975C13.4235 17.9082 12.5974 17.8167 11.7871 17.9313C10.9768 18.0459 10.2085 18.363 9.55322 18.8532C8.89795 19.3435 8.3769 19.9911 8.03826 20.7361C7.69962 21.4811 7.55432 22.2995 7.61581 23.1155C7.67729 23.9316 7.94357 24.719 8.39002 25.4048C8.83647 26.0907 9.44867 26.6529 10.17 27.0394C10.8913 27.426 11.6985 27.6244 12.5168 27.6163H19.8167Z" stroke="white" stroke-width="1.82498" stroke-linecap="round" stroke-linejoin="round"/>
<path d="M12.5161 22.7498H12.5283" stroke="white" stroke-width="1.82498" stroke-linecap="round" stroke-linejoin="round"/>
<path d="M19.8159 22.7498H19.8281" stroke="white" stroke-width="1.82498" stroke-linecap="round" stroke-linejoin="round"/>
</svg>
