<svg width="32" height="32" viewBox="0 0 32 32" fill="none" xmlns="http://www.w3.org/2000/svg">
<path d="M9.27734 16C10.4262 11.7711 15.3151 8.66663 19.6662 8.66663C24.0173 8.66663 27.0729 11.7711 28.2218 16C27.0729 20.2411 24.0173 23.3333 19.6662 23.3333C15.3151 23.3333 10.4262 20.2411 9.27734 16Z" stroke="white" stroke-width="1.83333" stroke-linecap="round" stroke-linejoin="round"/>
<path d="M23.3335 16V16.1" stroke="white" stroke-width="1.83333" stroke-linecap="round" stroke-linejoin="round"/>
<path d="M20.8891 23.2479C19.2993 21.1662 18.438 18.6195 18.438 16.0001C18.438 13.3807 19.2993 10.834 20.8891 8.75232" stroke="white" stroke-width="1.83333" stroke-linecap="round" stroke-linejoin="round"/>
<path d="M9.88914 14.3744C9.88914 11.1111 8.15358 8.62999 4.67025 8.05554C3.44803 9.88888 3.44803 14.1667 4.95136 16C3.4358 17.8333 3.4358 22.1111 4.67025 23.9444C8.15358 23.37 9.88914 20.8889 9.88914 17.6255" stroke="white" stroke-width="1.83333" stroke-linecap="round" stroke-linejoin="round"/>
<path d="M14.1175 10.2067C13.7997 8.52002 12.5408 6.51557 11.1108 5.00002H18.1997C18.7797 4.99787 19.3415 5.20198 19.7848 5.57589C20.2281 5.94979 20.524 6.46913 20.6197 7.04113L20.9008 8.75224" stroke="white" stroke-width="1.83333" stroke-linecap="round" stroke-linejoin="round"/>
<path d="M20.901 23.2478L20.6199 24.959C20.5242 25.5309 20.2283 26.0503 19.785 26.4242C19.3416 26.7981 18.7798 27.0022 18.1999 27.0001H12.9443C14.1285 25.6574 14.7768 23.9258 14.7654 22.1356" stroke="white" stroke-width="1.83333" stroke-linecap="round" stroke-linejoin="round"/>
</svg>
