<svg width="32" height="32" viewBox="0 0 32 32" fill="none" xmlns="http://www.w3.org/2000/svg">
<path d="M29.9651 16.8853L27.0234 14.4164C29.706 11.8205 28.0026 6.9456 24.1382 6.76342C22.6033 3.80143 18.6789 3.07885 16.1901 5.28909C16.0835 5.384 15.9163 5.38389 15.8096 5.28909C13.3157 3.07428 9.3928 3.80885 7.86156 6.76336C3.99822 6.9456 2.29295 11.8203 4.97618 14.4165L2.03466 16.8853C1.65703 17.2022 1.60781 17.7653 1.92469 18.143C3.18632 19.6467 5.21705 20.0402 6.86793 19.3531C6.14625 25.2438 10.1893 27.9996 15.9986 28C15.9991 28 15.9995 28 15.9999 28C16.0003 28 16.0008 28 16.0011 28C21.7882 27.9996 25.8566 25.2598 25.1323 19.3533C26.7829 20.0401 28.8132 19.6467 30.075 18.1429C30.392 17.7653 30.3427 17.2022 29.9651 16.8853ZM5.00023 17.8844C4.63955 17.8528 4.29718 17.7466 3.99052 17.5748L6.55697 15.4208C6.58838 15.4327 7.07638 15.6286 7.71582 15.6889C7.55496 17.0055 6.373 18.0039 5.00023 17.8844ZM15.9999 22.7047C14.9586 22.7047 14.1491 21.8736 14.0133 21.4978C14.705 21.0783 17.2944 21.078 17.9865 21.4978C17.8507 21.8737 17.0413 22.7047 15.9999 22.7047ZM16.8927 26.1891V24.3829C18.5263 23.9916 19.7911 22.5985 19.7911 21.4256C19.7911 20.3702 18.8831 19.8976 18.3419 19.7099C17.1354 19.2914 14.8648 19.2912 13.6578 19.7099C12.3969 20.1473 12.2087 20.9726 12.2087 21.4256C12.2087 22.5985 13.4735 23.9916 15.1072 24.3829V26.1891C9.68747 25.8768 7.44107 22.9852 9.12291 17.286C9.47589 17.5824 9.86401 17.8233 10.2736 18.0093C9.80754 18.1674 9.4717 18.6075 9.4717 19.127C9.4717 19.7793 10.0004 20.308 10.6527 20.308C11.305 20.308 11.8337 19.7793 11.8337 19.127C11.8337 18.8544 11.7404 18.604 11.5852 18.4041C13.1356 18.6541 14.7934 18.2042 16 17.0091C17.2222 18.2199 18.8988 18.6608 20.4568 18.396C20.2979 18.5972 20.2023 18.8507 20.2023 19.1269C20.2023 19.7792 20.7311 20.3079 21.3833 20.3079C22.0356 20.3079 22.5643 19.7792 22.5643 19.1269C22.5643 18.5995 22.2186 18.1532 21.7414 18.0015C22.1461 17.8163 22.5292 17.5778 22.8771 17.2856C24.5534 22.9636 22.3348 25.8756 16.8927 26.1891ZM23.6274 13.9144C23.2294 13.8852 22.8599 14.1236 22.7232 14.4991C21.7859 17.0748 18.2417 17.4917 16.7571 15.1137C16.4039 14.548 15.588 14.5607 15.2426 15.1137C13.7684 17.4746 10.2209 17.0943 9.27658 14.4991C9.13993 14.1237 8.77055 13.8851 8.37244 13.9143C8.37066 13.9144 8.36881 13.9144 8.36703 13.9145C7.82312 13.9578 7.31168 13.8494 6.846 13.5922C4.32954 12.206 5.48125 8.31157 8.36173 8.55546C8.76297 8.58972 9.13736 8.35113 9.27591 7.97316C10.0884 5.75572 12.8721 5.06802 14.624 6.62398C15.4084 7.3205 16.5914 7.3205 17.3757 6.62398C19.131 5.0649 21.9125 5.75879 22.7238 7.97316C22.8623 8.35124 23.2377 8.58983 23.6379 8.55546C26.5316 8.30883 27.6986 12.2702 25.0908 13.6254C24.6187 13.8708 24.1423 13.9503 23.6274 13.9144ZM26.9995 17.8844C25.6267 18.004 24.445 17.006 24.284 15.6889C24.6551 15.6539 25.059 15.5659 25.4428 15.4208L28.0093 17.5748C27.7026 17.7466 27.3602 17.8528 26.9995 17.8844Z" fill="white"/>
</svg>
