<svg width="32" height="32" viewBox="0 0 32 32" fill="none" xmlns="http://www.w3.org/2000/svg">
<path d="M25.334 5.99999C24.0737 5.33497 22.6042 5.18573 21.2359 5.58378C19.8676 5.98183 18.7076 6.89601 18.0007 8.13332C17.334 7.99999 16.6673 7.99999 16.0007 7.99999C10.134 7.99999 5.33398 11.6 5.33398 16C5.33398 18 6.40065 19.8667 8.00065 21.3333V24C8.00065 24.7072 8.2816 25.3855 8.7817 25.8856C9.2818 26.3857 9.96007 26.6667 10.6673 26.6667H13.334V23.7333C15.0999 24.0243 16.9014 24.0243 18.6673 23.7333V25.3333C18.6673 26.1333 19.2007 26.6667 20.0007 26.6667H24.0007V21.3333C24.934 20.5333 25.6007 19.7333 26.0007 18.6667H28.0007C28.8007 18.6667 29.334 18.1333 29.334 17.3333V13.3333H26.0007C25.4673 12 24.4007 10.9333 23.0673 9.99999L25.334 5.99999Z" stroke="white" stroke-width="1.8" stroke-linecap="round" stroke-linejoin="round"/>
<path d="M21.334 14.6666H21.3473" stroke="white" stroke-width="1.8" stroke-linecap="round" stroke-linejoin="round"/>
<path d="M3.06727 9.33337C2.82454 9.78376 2.71649 10.2945 2.75602 10.8046C2.79555 11.3147 2.98098 11.8026 3.2902 12.2102C3.59943 12.6178 4.01938 12.9279 4.49996 13.1034C4.98055 13.2789 5.50148 13.3124 6.00061 13.2" stroke="white" stroke-width="1.8" stroke-linecap="round" stroke-linejoin="round"/>
</svg>
